# xmcd CD database file
#
# Track frame offsets:
#	150
#	14982
#	24400
#	49675
#	59648
#	71055
#	87060
#	109195
#	119888
#	131684
#	144163
#	154520
#	169432
#	181762
#	197440
#	209164
#	223281
#	242587
#	264086
#	277460
#	285950
#	302314
#	314652
#	336359
#
# Disc length: 4729 seconds
#
# Revision: 0
# Processed by: cddbd v1.4PL0 Copyright (c) Steve Scherf et al.
# Submitted via: Feurio! 1.65.3ß - http://www.feurio.com
#
DISCID=77127718
DTITLE=Frank - Back To The Wall
DYEAR=1900
DGENRE=Country
TTITLE0=13-11-1999
TTITLE1=Better No
TTITLE2=I Don't Want To Talk About It
TTITLE3=Country Ballad
TTITLE4=Down There By The Train
TTITLE5=I Just Wanna Fall In Love Tonight
TTITLE6=He Asked Me For A Light
TTITLE7=Joggin' Down The Beach
TTITLE8=If There's A God
TTITLE9=Get It On, Buddy
TTITLE10=Another Broken Heart
TTITLE11=Some Folks
TTITLE12=I Never Sang The Opry
TTITLE13=I'm Wicked
TTITLE14=Down The Drain
TTITLE15=Wish I Had You
TTITLE16=Memphis Winter
TTITLE17=Woke Up This Morning (Long Version)
TTITLE18=One More Drink
TTITLE19=Part Time Lover
TTITLE20=Raining
TTITLE21=You've Broken Up My Heart (Alice's Song)
TTITLE22=The Devil'll Go To Hell
TTITLE23=Tuesday Midnight Fussing And Fighting With Myself Blues
EXTD=
EXTT0=
EXTT1=
EXTT2=
EXTT3=
EXTT4=
EXTT5=
EXTT6=
EXTT7=
EXTT8=
EXTT9=
EXTT10=
EXTT11=
EXTT12=
EXTT13=
EXTT14=
EXTT15=
EXTT16=
EXTT17=
EXTT18=
EXTT19=
EXTT20=
EXTT21=
EXTT22=
EXTT23=
PLAYORDER=
